PathFileType	4	(X/Y/Z)	Patient4_TMGait_0pt6_01_left_33.trc.trc
DataRate	CameraRate	NumFrames	NumMarkers	Units	OrigDataRate	OrigDataStartFrame	OrigNumFrames
82.352941176471	82.352941176471	4	33	mm	82.352941176471	53	       141
Frame#	Time	Sacral			L.Shoulder			Chest			R.Shoulder			Neck			R.ASIS			L.ASIS			R.Thigh.Superior			R.Thigh.Lateral			R.Thigh.Inferior			R.Patella			L.Thigh.Superior			L.Thigh.Lateral			L.Thigh.Inferior			L.Patella			L.Shank.Superior			L.Shank.Lateral			L.Shank.Inferior			R.Shank.Superior			R.Shank.Lateral			R.Shank.Inferior			R.Heel			R.Midfoot.Superior			R.Midfoot.Lateral			R.Toe			L.Heel			L.Midfoot.Lateral			L.Midfoot.Superior			L.Toe			L.Elbow			L.Wrist			R.Elbow			R.Wrist			
		X1	Y1	Z1	X2	Y2	Z2	X3	Y3	Z3	X4	Y4	Z4	X5	Y5	Z5	X6	Y6	Z6	X7	Y7	Z7	X8	Y8	Z8	X9	Y9	Z9	X10	Y10	Z10	X11	Y11	Z11	X12	Y12	Z12	X13	Y13	Z13	X14	Y14	Z14	X15	Y15	Z15	X16	Y16	Z16	X17	Y17	Z17	X18	Y18	Z18	X19	Y19	Z19	X20	Y20	Z20	X21	Y21	Z21	X22	Y22	Z22	X23	Y23	Z23	X24	Y24	Z24	X25	Y25	Z25	X26	Y26	Z26	X27	Y27	Z27	X28	Y28	Z28	X29	Y29	Z29	X30	Y30	Z30	X31	Y31	Z31	X32	Y32	Z32	X33	Y33	Z33	

53	40.801428571429	736.072936483638	1012.848443894596	442.972835472909	912.535549740978	1442.191042365489	272.809193182752	1010.211409594647	1375.714678680915	437.300138342529	916.783993113232	1443.257212114393	607.905382192055	884.974707317718	1501.061786213546	425.479656300433	958.168314992768	950.547780869325	570.595427726766	960.219182822450	968.924247098103	296.144526339094	1045.359764167215	783.653496941435	533.304856262279	1010.220539870454	659.503614793377	600.947679394239	1099.475586053558	623.898598806129	518.954326245481	1121.041147010035	508.160519403784	537.407535184644	999.726205517835	749.416834120850	329.029686686053	905.103023411785	638.760233194791	268.952410547706	979.233332034659	557.428093128353	338.773396961100	974.625688051271	488.842442060463	351.574261876823	949.817938806267	418.063761530774	341.880994322467	864.023576298586	303.126998725463	286.978879587923	907.355170127031	193.724978861590	365.167631609942	1041.190986852627	434.715884573968	545.018857542097	918.647833870843	400.356622364972	606.420878606390	898.030751867110	293.058958381658	556.195745897645	694.911312768397	245.137508107533	529.878507086468	858.065374833366	171.031080946853	566.135524055194	748.445146190607	175.558041467811	598.345860825847	914.036901446945	52.065927797850	584.244254282366	776.119082053385	37.964227777739	402.592020019697	853.144863235662	35.408336343761	324.138268784655	935.171841320552	96.365367220670	354.516560312422	1064.945725334422	43.824392209823	330.795529594551	953.228943116021	1097.735419011015	132.839387372500	1168.538333202802	951.159872853160	149.405970584206	860.731977484351	1095.538857909853	717.979960689062	945.247189172822	847.772516703567	713.954830134515	
54	40.813571428571	735.560383116115	1013.453076222464	441.443386377521	913.785640851838	1442.987560254824	272.327960655627	1010.119685990539	1376.134926817022	437.411237313816	915.461983383851	1443.464224732816	607.373729304686	884.898953778401	1501.502895790001	425.000094241880	956.988406484149	951.622608003956	570.232659667846	960.276531700539	969.168345771209	295.927176566363	1046.577196483121	787.753420000829	532.245547235361	1014.323224565854	663.005845671738	600.269469361308	1103.711159120546	629.033280177527	517.782136482513	1127.976725118657	513.970631480771	536.383373064181	997.473522707853	748.491407705952	329.819570360477	901.867086753132	638.839525290686	268.588741517884	974.154110712684	556.659008607512	339.094486873647	968.655936524817	488.249791412816	351.771174588829	943.759231202899	417.760758962834	341.853746937497	857.671451565129	303.115075420907	286.831720221801	900.374611912626	193.609126547534	365.197814450867	1050.418278091328	438.426563504972	544.240461415800	929.205163485379	399.746241710516	605.586492926174	912.454995593025	291.696362756346	555.456291921229	711.111374268402	236.217151300525	529.244058854976	876.935222689902	168.364439085827	565.260552268985	767.292443892520	168.694102210277	597.661116314666	937.382161390587	51.896683478859	583.353313915119	768.726983189411	37.957078114785	402.536229535371	845.785646162610	35.394227544770	324.103145233558	927.827154022004	96.365547704112	354.484936402303	1057.590451493456	43.786327274272	330.772361659279	958.356259092774	1099.743123447918	131.611943625339	1179.781038121105	963.316987670804	149.400396975189	853.998264047489	1096.574959370613	716.433134191503	923.662530047362	843.612926067034	714.973229378252	
55	40.825714285714	735.118411797917	1013.924402560206	440.031481349700	915.131546042645	1443.678658961305	271.942219312005	1010.119872973021	1376.412698438571	437.591628179342	914.268600360109	1443.563717033335	606.909265693772	884.898727826624	1501.809670301482	424.649374927063	955.862908025061	952.542513658631	569.936068918493	960.274859422889	969.247930663847	295.810264042345	1047.567415312950	791.376292692892	531.531659051290	1017.780638850548	666.128097411798	599.881408793209	1107.250519806823	633.574802857816	517.004788862951	1133.929496935245	519.426236126339	535.820888005092	995.165883992506	747.513208702408	330.704315799162	898.691704787993	638.858494142848	268.200602532760	969.127630794143	555.854292003455	339.396246941295	962.764665033003	487.634565714689	351.899176005659	937.750590129086	417.404354690894	341.805298519641	851.343514928789	303.071332298110	286.682295587998	893.408379670619	193.454552360301	365.214960931335	1059.096474212366	441.699316170846	543.844183153132	939.636304932607	398.043464376000	605.129194652528	927.397565491121	289.328306825300	555.039295072156	728.450608896386	225.234059993259	528.865230084504	897.060452361818	164.700824220672	564.754214673753	787.546121915639	160.252465343888	597.327444674540	962.558336636735	51.227311209574	582.956504754748	761.350685355982	37.948658939964	402.479542185856	838.426309176466	35.374983204226	324.073323806719	920.484042242124	96.353665238361	354.460464048770	1050.243264249467	43.733341048854	330.752940856194	963.119420494090	1101.584752659065	130.651268805077	1190.173028097373	975.550156791445	149.664104976188	847.211471731072	1097.739620154972	715.051827121667	903.194138582631	841.032716128921	715.458052635212	
56	40.837857142857	734.734654000552	1014.236988977433	438.746000005442	916.544771318271	1444.220942163060	271.646929900389	1010.207019197211	1376.520475924592	437.830245878458	913.222331918422	1443.543444008726	606.510972851624	884.986519405051	1501.965921674988	424.405921930108	954.808248717259	953.271690456721	569.706330338429	960.227333846585	969.155274258907	295.772339430887	1048.318539847414	794.429087481839	531.129524623599	1020.547184027974	668.769617458895	599.763493359106	1110.052739560815	637.399970687753	516.608001790085	1138.847192900008	524.410162320569	535.689301739989	992.847629827324	746.479535347633	331.598813641826	895.594181328555	638.802603065749	267.790239060142	964.211147638050	555.008497256308	339.653774122098	957.016495490000	486.987693652390	351.954596351616	931.843110303093	416.981410353370	341.740689008778	845.079619742781	302.992982806210	286.535184065908	886.478665521203	193.252878957793	365.225348576589	1067.162810243178	444.484225770870	543.806947171679	949.972361610697	395.303510423510	605.075324891919	942.812573566546	286.102711875849	554.955628739645	747.008937633677	212.514307776154	528.828285779434	918.346551717320	160.289047567744	564.613841376714	809.218948729831	150.564233506687	597.391451685623	989.335559719350	50.331465983135	582.987850907288	753.994810535154	37.942339824600	402.418854912633	831.070081692362	35.352059380054	324.048810348419	913.146947721464	96.328714350760	354.446017439725	1042.907272666398	43.661261361213	330.736870021487	967.556819033733	1103.203805216491	129.934364303347	1199.715730634791	987.714285394006	150.172200483206	840.363136087827	1099.031121287866	713.854955731199	883.981129797150	839.804391114996	715.448273550561	
